#!OML:ASF F:\VICON\USERDATA\INSTALL\Justin_Nancy\Justin_Nancy.ASF
:FULLY-SPECIFIED
:DEGREES
1
root 0.344375 16.5708 -33.4149 18.973 -2.89877 -4.84045
lowerback 10.7627 -0.728894 -0.537365
upperback 0.241828 -0.695327 5.81414
thorax -5.72167 -0.24869 6.58007
lowerneck -8.96846 -0.949669 -14.4193
upperneck 7.9039 -0.0595932 6.80875
head 3.83356 -0.111705 4.43503
rclavicle 6.36111e-015 -1.43125e-014
rhumerus -33.8722 21.3117 -93.0055
rradius 81.5865
rwrist -8.8115
rhand -15.2635 17.9415
rfingers 7.12502
rthumb 10.9106 -11.755
lclavicle 6.36111e-015 -1.43125e-014
lhumerus -53.1242 10.2665 86.4928
lradius 71.4541
lwrist 1.93793
lhand -18.081 27.1635
lfingers 7.12502
lthumb 8.19214 56.9847
rfemur 2.60955 2.0663 28.7071
rtibia 16.5566
rfoot -17.5332 -8.48988
rtoes -21.6416
lfemur -56.7143 8.36674 -12.7776
ltibia 84.1406
lfoot -10.8863 -4.36087
ltoes -12.8436
2
root 0.339953 16.5564 -33.2469 19.5135 -3.76491 -5.13032
lowerback 10.4097 -0.0497852 -0.078395
upperback 0.384337 0.215448 5.22455
thorax -5.47193 0.173963 5.52477
lowerneck -9.41017 -1.41942 -13.8614
upperneck 7.61078 -0.735107 7.23878
head 3.88705 -0.391668 4.44068
rclavicle 1.68967e-014 2.94201e-014
rhumerus -33.2173 20.1937 -93.3971
rradius 83.0016
rwrist -8.69364
rhand -15.1927 18.0723
rfingers 7.12502
rthumb 10.9789 -11.6206
lclavicle 1.68967e-014 2.94201e-014
lhumerus -53.8945 8.46147 86.3026
lradius 73.2443
lwrist 2.46521
lhand -18.4763 25.9224
lfingers 7.12502
lthumb 7.81063 55.7581
rfemur 2.8658 2.91227 28.6123
rtibia 16.3119
rfoot -17.1446 -8.03901
rtoes -22.952
lfemur -57.8614 9.32712 -12.8573
ltibia 83.4614
lfoot -11.6227 -5.24211
ltoes -12.9669
3
root 0.347119 16.5384 -33.0712 19.8251 -4.20064 -5.30384
lowerback 10.5696 0.142068 -0.339284
upperback 0.197267 0.460094 5.35302
thorax -5.78746 0.311423 5.78327
lowerneck -9.13014 -1.2395 -13.9384
upperneck 7.26196 -0.507177 7.14322
head 3.71054 -0.282097 4.43204
rclavicle 1.35174e-014 3.97569e-015
rhumerus -33.6761 20.8311 -93.5006
rradius 84.6536
rwrist -8.81928
rhand -15.3158 17.9507
rfingers 7.12502
rthumb 10.8602 -11.7485
lclavicle 1.35174e-014 3.97569e-015
lhumerus -55.5066 8.49516 86.4736
lradius 74.9706
lwrist 2.89194
lhand -18.709 24.4382
lfingers 7.12502
lthumb 7.58607 54.2821
rfemur 3.54946 3.38803 28.5106
rtibia 15.5713
rfoot -16.2531 -7.51747
rtoes -23.2728
lfemur -58.7134 9.68119 -12.8895
ltibia 82.5084
lfoot -12.2613 -5.58983
ltoes -14.1476
4
root 0.362527 16.5343 -32.883 19.9089 -4.33505 -5.18046
lowerback 10.2959 2.18902 2.30087
upperback 2.22941 3.24856 2.9053
thorax -3.4861 1.59099 1.29864
lowerneck -16.3711 -4.30152 -10.4329
upperneck 8.23104 -4.43405 7.60959
head 5.54711 -1.96061 3.67512
rclavicle -1.19271e-014 5.56597e-015
rhumerus -28.6983 13.4029 -92.7634
rradius 85.8101
rwrist -8.59288
rhand -15.5094 18.6863
rfingers 7.12502
rthumb 10.6734 -11.0226
lclavicle -1.19271e-014 5.56597e-015
lhumerus -50.8176 0.437266 86.5816
lradius 75.7198
lwrist 3.73778
lhand -18.777 23.5613
lfingers 7.12502
lthumb 7.52042 53.4076
rfemur 4.35101 3.44479 28.1595
rtibia 14.8651
rfoot -15.4272 -6.86179
rtoes -24.1119
lfemur -59.198 9.42779 -13.1161
ltibia 81.3164
lfoot -12.8492 -5.68228
ltoes -14.2589
5
root 0.379826 16.5365 -32.682 20.1088 -4.71336 -5.04322
lowerback 11.7555 2.31246 1.72501
upperback 1.03006 3.4572 2.97063
thorax -5.59365 1.68642 1.57813
lowerneck -15.1212 -4.52992 -10.7634
upperneck 8.24513 -4.82335 7.77442
head 5.39708 -2.17489 3.75428
rclavicle 5.66536e-014 4.41302e-014
rhumerus -30.9034 13.9184 -93.2099
rradius 87.1621
rwrist -8.94734
rhand -15.4862 19.8477
rfingers 7.12502
rthumb 10.6958 -9.86003
lclavicle 5.66536e-014 4.41302e-014
lhumerus -54.1397 0.510189 86.7519
lradius 77.5821
lwrist 4.24027
lhand -18.4579 21.2646
lfingers 7.12502
lthumb 7.82843 51.0997
rfemur 5.20496 3.62386 27.648
rtibia 14.0509
rfoot -14.76 -5.7791
rtoes -23.5406
lfemur -59.6142 9.36991 -13.477
ltibia 79.9015
lfoot -13.4003 -5.71583
ltoes -14.7281
6
root 0.39888 16.5406 -32.4765 20.4126 -5.18366 -5.00201
lowerback 11.9211 2.1913 1.20547
upperback 0.416908 3.27556 3.19679
thorax -6.37536 1.61292 2.12306
lowerneck -13.2012 -3.58533 -11.3612
upperneck 7.79681 -3.61994 7.72826
head 4.83949 -1.6433 3.9669
rclavicle 1.61016e-014 -3.33958e-014
rhumerus -32.2032 15.5495 -93.5935
rradius 87.9518
rwrist -8.97826
rhand -15.8682 20.3854
rfingers 7.12502
rthumb 10.3273 -9.34098
lclavicle 1.61016e-014 -3.33958e-014
lhumerus -56.7906 1.61378 86.7622
lradius 79.3543
lwrist 5.52374
lhand -18.9145 23.9901
lfingers 7.12502
lthumb 7.38767 53.8411
rfemur 6.0399 3.81135 27.1531
rtibia 13.1936
rfoot -13.8063 -4.64236
rtoes -22.9486
lfemur -60.0292 9.36017 -13.7389
ltibia 78.4012
lfoot -13.9539 -5.75303
ltoes -14.3694
7
root 0.420982 16.5347 -32.2761 20.6577 -5.21312 -4.94017
lowerback 10.9946 1.76735 1.05045
upperback 0.555234 2.67391 3.43691
thorax -5.70821 1.32871 2.59251
lowerneck -11.5263 -3.16215 -12.3295
upperneck 6.30155 -3.08341 8.27908
head 4.07871 -1.3914 4.34925
rclavicle -4.45278e-014 -4.45278e-014
rhumerus -32.4051 17.667 -93.9175
rradius 88.0891
rwrist -8.04545
rhand -17.2677 21.0185
rfingers 7.12502
rthumb 8.97703 -8.77053
lclavicle -4.45278e-014 -4.45278e-014
lhumerus -58.213 3.18482 86.5282
lradius 80.9234
lwrist 7.50502
lhand -18.5169 24.786
lfingers 7.12502
lthumb 7.77147 54.6232
rfemur 6.8407 3.86832 26.837
rtibia 12.3879
rfoot -12.5034 -4.08217
rtoes -23.2577
lfemur -60.381 8.90798 -13.8421
ltibia 76.9453
lfoot -14.4863 -5.77
ltoes -12.8299
8
root 0.441444 16.5218 -32.0711 20.7959 -5.32669 -4.99834
lowerback 12.1041 1.24101 -0.538356
upperback -0.532594 1.92281 4.67704
thorax -7.56598 1.05995 4.93833
lowerneck -9.68601 -2.15394 -13.7326
upperneck 6.11733 -1.71736 7.83908
head 3.58708 -0.805773 4.53795
rclavicle -6.75868e-015 -3.81667e-014
rhumerus -34.9606 20.7529 -93.7767
rradius 89.858
rwrist -11.5289
rhand -14.8936 21.3433
rfingers 7.12502
rthumb 11.2674 -8.33411
lclavicle -6.75868e-015 -3.81667e-014
lhumerus -61.6953 6.42465 86.7851
lradius 82.3279
lwrist 9.26342
lhand -17.7807 23.8676
lfingers 7.12502
lthumb 8.482 53.6772
rfemur 7.74814 4.17519 26.655
rtibia 11.4705
rfoot -10.9687 -3.68564
rtoes -23.8967
lfemur -60.4763 8.51467 -13.7537
ltibia 75.5862
lfoot -15.0114 -5.85163
ltoes -12.6195
9
root 0.461939 16.5185 -31.8465 20.9921 -5.81238 -5.08917
lowerback 11.9969 1.27201 -0.931396
upperback -0.76553 1.9279 4.83229
thorax -7.77694 1.08962 5.33518
lowerneck -8.5671 -1.71773 -13.9373
upperneck 5.58423 -1.24403 7.78831
head 3.1922 -0.587417 4.58058
rclavicle 8.34896e-015 -4.77083e-015
rhumerus -36.0475 21.7088 -94.0739
rradius 90.5206
rwrist -11.7246
rhand -15.574 22.0544
rfingers 7.12502
rthumb 10.6111 -7.65773
lclavicle 8.34896e-015 -4.77083e-015
lhumerus -63.1415 7.17676 86.5971
lradius 83.236
lwrist 10.6812
lhand -16.6439 22.797
lfingers 7.12502
lthumb 9.57892 52.5592
rfemur 8.53644 4.7576 26.3419
rtibia 10.6424
rfoot -9.42779 -3.26231
rtoes -24.2229
lfemur -60.3265 8.35612 -13.732
ltibia 74.204
lfoot -15.5073 -6.02606
ltoes -14.8013
10
root 0.488456 16.5215 -31.5921 20.9746 -6.34821 -5.03541
lowerback 10.9003 3.25286 2.73162
upperback 1.52482 4.6926 1.5463
thorax -4.41567 2.27501 -0.596624
lowerneck -15.1935 -4.57199 -9.94324
upperneck 6.31552 -5.06434 8.75177
head 4.83997 -2.19701 3.90904
rclavicle 3.20043e-014 2.18663e-014
rhumerus -30.7527 13.5475 -93.9205
rradius 90.6989
rwrist -11.8753
rhand -15.33 23.2923
rfingers 7.12502
rthumb 10.8465 -6.40757
lclavicle 3.20043e-014 2.18663e-014
lhumerus -57.5397 -1.31038 85.5376
lradius 83.1687
lwrist 12.9957
lhand -16.2542 22.5019
lfingers 7.12502
lthumb 9.95495 52.2465
rfemur 9.29643 5.20442 25.8412
rtibia 10.425
rfoot -8.16816 -2.79247
rtoes -26.0561
lfemur -59.6906 7.98165 -13.8276
ltibia 72.7859
lfoot -15.8286 -6.21805
ltoes -17.0374
11
root 0.5141 16.5103 -31.3493 21.0851 -6.47159 -5.08202
lowerback 10.6736 3.41512 2.96386
upperback 1.72238 4.9096 1.39576
thorax -4.04465 2.38561 -0.887549
lowerneck -15.8237 -4.79525 -9.85848
upperneck 6.2977 -5.34136 8.91815
head 4.9654 -2.30504 3.91397
rclavicle 4.73108e-014 2.78299e-015
rhumerus -30.7995 13.4685 -93.7994
rradius 90.7792
rwrist -11.4151
rhand -15.6185 23.3487
rfingers 7.12502
rthumb 10.5682 -6.36561
lclavicle 4.73108e-014 2.78299e-015
lhumerus -57.6163 -1.40688 85.3622
lradius 83.9119
lwrist 13.7969
lhand -15.3652 23.0368
lfingers 7.12502
lthumb 10.8125 52.7384
rfemur 9.84165 5.61657 25.6678
rtibia 10.4472
rfoot -6.81253 -2.61384
rtoes -29.2992
lfemur -59.3612 7.34041 -13.6928
ltibia 71.4595
lfoot -15.8368 -6.62705
ltoes -18.7075
12
root 0.519666 16.4954 -31.1522 21.4952 -5.77176 -4.79537
lowerback 11.2896 3.23111 2.81986
upperback 1.05534 4.6956 1.31654
thorax -5.09762 2.25726 -0.927109
lowerneck -15.6375 -4.76133 -9.70285
upperneck 6.4453 -5.3593 8.97449
head 4.9811 -2.31012 3.90725
rclavicle -4.7112e-014 -3.18055e-015
rhumerus -32.0652 13.4586 -94.0293
rradius 90.8766
rwrist -11.172
rhand -16.16 23.6341
rfingers 7.12502
rthumb 10.0458 -6.10616
lclavicle -4.7112e-014 -3.18055e-015
lhumerus -58.7206 -1.45511 85.1254
lradius 84.3569
lwrist 14.1224
lhand -15.4033 19.4945
lfingers 7.12502
lthumb 10.7758 49.1981
rfemur 9.67486 5.56115 25.6289
rtibia 11.0322
rfoot -5.35903 -2.94234
rtoes -31.4808
lfemur -59.7645 6.25657 -13.7439
ltibia 70.2064
lfoot -15.2271 -7.41412
ltoes -20.0751
13
root 0.538984 16.4785 -30.8993 21.4848 -6.00842 -4.70665
lowerback 11.7509 3.22918 2.92347
upperback 0.622208 4.72008 0.977
thorax -5.773 2.24558 -1.38865
lowerneck -15.2386 -4.6809 -9.52043
upperneck 6.60053 -5.36887 9.2964
head 4.97234 -2.29843 3.98458
rclavicle -4.85035e-014 -1.59028e-014
rhumerus -33.4019 13.4321 -94.6094
rradius 91.0344
rwrist -11.467
rhand -16.2626 23.6586
rfingers 7.12502
rthumb 9.94677 -6.08642
lclavicle -4.85035e-014 -1.59028e-014
lhumerus -59.6938 -1.53516 84.6482
lradius 84.5241
lwrist 14.1377
lhand -15.1295 21.3459
lfingers 7.12502
lthumb 11.0398 51.0356
rfemur 9.66759 5.84248 25.2876
rtibia 12.3301
rfoot -4.20013 -2.72412
rtoes -29.254
lfemur -59.1017 5.91626 -13.9037
ltibia 69.2223
lfoot -14.9362 -8.09311
ltoes -15.7902
14
root 0.557718 16.4547 -30.6494 21.4581 -6.1327 -4.6079
lowerback 12.4507 3.09688 3.66475
upperback 0.149668 4.63637 0.141045
thorax -6.54027 2.14639 -2.72883
lowerneck -15.3642 -4.61495 -8.6373
upperneck 7.10994 -5.52015 9.62888
head 5.15397 -2.31941 3.93148
rclavicle -3.53837e-014 -1.0138e-014
rhumerus -34.4084 12.9057 -95.833
rradius 90.8412
rwrist -11.662
rhand -16.3221 23.7316
rfingers 7.12502
rthumb 9.8894 -6.01609
lclavicle -3.53837e-014 -1.0138e-014
lhumerus -60.4162 -2.15301 83.4933
lradius 84.6869
lwrist 14.1266
lhand -15.183 21.7015
lfingers 7.12502
lthumb 10.9882 51.3939
rfemur 9.38755 6.21206 25.0484
rtibia 14.0183
rfoot -2.85959 -2.64442
rtoes -17.2994
lfemur -58.3663 5.50147 -14.098
ltibia 68.675
lfoot -15.012 -8.28311
ltoes -15.8393
15
root 0.576058 16.4272 -30.4029 21.4561 -6.25974 -4.81424
lowerback 10.4237 3.54636 2.61474
upperback 1.54914 5.03574 1.25184
thorax -4.10011 2.45093 -0.849837
lowerneck -15.9674 -4.84492 -9.51736
upperneck 6.01634 -5.47995 9.18311
head 4.91478 -2.34422 3.92808
rclavicle 1.61016e-014 2.10712e-014
rhumerus -32.8929 13.6213 -93.2988
rradius 90.5558
rwrist -12.3655
rhand -16.1731 23.531
rfingers 7.12502
rthumb 10.0332 -6.20986
lclavicle 1.61016e-014 2.10712e-014
lhumerus -58.5081 -1.29857 85.3028
lradius 84.6724
lwrist 13.2355
lhand -15.5326 22.6797
lfingers 7.12502
lthumb 10.6511 52.3898
rfemur 8.91126 6.47715 25.0667
rtibia 15.8955
rfoot -0.975561 -2.28666
rtoes -17.0233
lfemur -57.6877 5.25378 -14.0594
ltibia 68.5572
lfoot -15.143 -8.19335
ltoes -12.517
